<?xml version="1.0" encoding="UTF-8" standalone="no"?>
<svg
   xmlns:dc="http://purl.org/dc/elements/1.1/"
   xmlns:cc="http://creativecommons.org/ns#"
   xmlns:rdf="http://www.w3.org/1999/02/22-rdf-syntax-ns#"
   xmlns:svg="http://www.w3.org/2000/svg"
   xmlns="http://www.w3.org/2000/svg"
   id="svg8"
   version="1.1"
   viewBox="0 0 304.79999 199.05133"
   height="199.05133mm"
   width="304.79999mm">
  <defs
     id="defs2" />
  <metadata
     id="metadata5">
    <rdf:RDF>
      <cc:Work
         rdf:about="">
        <dc:format>image/svg+xml</dc:format>
        <dc:type
           rdf:resource="http://purl.org/dc/dcmitype/StillImage" />
        <dc:title></dc:title>
      </cc:Work>
    </rdf:RDF>
  </metadata>
  <g
     transform="translate(49.590469,-22.093388)"
     id="layer1">
    <path
       id="path886"
       d="m 191.83126,195.65915 c -1.64871,-0.1609 -2.827,-0.52686 -3.09116,-0.96007 -0.14356,-0.23544 -0.16259,-0.43535 -0.16246,-1.70603 9e-5,-0.79163 0.038,-1.57551 0.0842,-1.74196 0.20429,-0.73542 0.88312,-0.92734 1.95047,-0.55145 0.70866,0.24955 1.76707,0.3772 3.38331,0.40805 0.96781,0.0185 1.09075,0.003 1.43921,-0.17862 0.49434,-0.25793 0.74099,-0.48758 0.93957,-0.87482 0.207,-0.40363 0.20432,-0.70098 -0.008,-0.91353 -0.22191,-0.22191 -0.28636,-0.21642 -1.11605,0.0951 -0.61088,0.22934 -0.84545,0.27006 -1.76883,0.30703 -1.92194,0.0769 -3.10585,-0.30268 -4.12627,-1.32311 -0.9627,-0.9627 -1.27223,-1.71857 -1.75511,-4.286 -0.41746,-2.21959 -0.37949,-3.8642 0.13824,-5.98666 0.40961,-1.67925 0.87621,-2.61152 1.80331,-3.60302 1.01402,-1.08447 2.01628,-1.62177 3.27014,-1.75311 0.99179,-0.10389 2.21497,0.21628 2.94054,0.7697 0.3474,0.26498 0.49081,0.22182 0.56429,-0.16985 0.031,-0.16507 0.10014,-0.32721 0.15372,-0.36032 0.15543,-0.0961 4.89935,-0.1139 5.20392,-0.0196 0.19735,0.0611 0.29245,0.15657 0.3526,0.35392 0.0512,0.16804 0.0656,1.82311 0.038,4.37657 -0.0593,5.48724 -0.0595,5.31478 0.0133,9.22866 0.0604,3.24639 0.0547,3.47255 -0.10633,4.24677 -0.27181,1.30648 -0.83088,2.22756 -1.88014,3.09759 -0.93984,0.7793 -2.10067,1.22869 -3.76767,1.45858 -0.92308,0.1273 -3.55407,0.17776 -4.4926,0.0862 z m 3.64639,-11.88728 c 0.35459,-0.23233 0.70346,-0.79405 0.8104,-1.30484 0.12003,-0.5733 0.0522,-2.46617 -0.1074,-2.99902 -0.0596,-0.19898 -0.26313,-0.51815 -0.46418,-0.72797 -0.35367,-0.36912 -0.36371,-0.37317 -0.82968,-0.33453 -0.58493,0.0485 -0.85978,0.28483 -1.1957,1.02807 -0.20358,0.45041 -0.2404,0.6559 -0.27241,1.52021 -0.0571,1.54215 0.19579,2.40435 0.83213,2.83673 0.33923,0.2305 0.85864,0.22261 1.22684,-0.0186 z m -81.76269,8.93248 c -1.16162,-0.25359 -1.93531,-0.67124 -2.74229,-1.48032 -0.73629,-0.7382 -1.15693,-1.38429 -1.60226,-2.46098 -0.65952,-1.59448 -0.79676,-2.61686 -0.81877,-6.09933 -0.0185,-2.93492 0.0411,-3.49831 0.57727,-5.45628 0.4401,-1.60705 0.83113,-2.34297 1.71413,-3.22597 0.60435,-0.60435 0.86825,-0.7982 1.53404,-1.12687 0.96881,-0.47825 1.64801,-0.63491 3.04778,-0.70301 1.28482,-0.0625 2.32202,0.0605 3.28178,0.38933 1.00455,0.34414 1.56715,0.70706 2.43605,1.57147 1.14528,1.13937 1.62887,2.17476 1.99698,4.27566 0.32648,1.86332 0.30045,5.52639 -0.0563,7.92932 -0.51898,3.49514 -2.13944,5.56454 -4.94122,6.31015 -0.96323,0.25633 -3.41033,0.2988 -4.42714,0.0768 z m 2.73881,-5.95173 c 0.25017,-0.14061 0.39678,-0.31772 0.59315,-0.71661 0.25556,-0.51911 0.2625,-0.5664 0.34237,-2.33207 0.16434,-3.63269 -0.0903,-5.23506 -0.91286,-5.7434 -0.80088,-0.49497 -1.56473,0.083 -1.90781,1.44351 -0.16087,0.63793 -0.16741,5.50165 -0.008,6.18067 0.26871,1.14683 1.06121,1.63566 1.89348,1.1679 z m 44.91197,5.93881 c -1.8232,-0.21155 -2.68345,-0.58443 -3.94622,-1.71052 -0.98067,-0.87453 -1.21761,-1.18393 -1.55568,-2.03139 -0.57586,-1.44356 -0.70337,-2.06504 -0.85544,-4.16913 -0.0996,-1.37854 -0.0987,-1.96599 0.006,-4.10634 0.13545,-2.76433 0.20339,-3.16704 0.70701,-4.191 0.83154,-1.69066 2.366,-2.89711 4.365,-3.43192 0.9641,-0.25793 2.78615,-0.32056 3.79408,-0.1304 2.80059,0.52834 4.51083,1.93879 5.2948,4.36666 0.3474,1.07585 0.43612,1.92732 0.43612,4.18546 0,2.11854 -0.001,2.13389 -0.21736,2.56747 -0.11955,0.23991 -0.35279,0.55509 -0.51832,0.70042 l -0.30095,0.26425 -0.89985,-0.0521 c -0.49492,-0.0287 -1.31895,-0.0192 -1.83119,0.021 -0.54914,0.0431 -1.53383,0.0399 -2.39949,-0.008 -1.56963,-0.0865 -1.90935,-0.0451 -2.32723,0.2836 -0.29322,0.23066 -0.35911,0.63477 -0.19493,1.19573 0.36396,1.24369 1.70798,1.85413 3.82044,1.73521 1.07156,-0.0603 1.32055,-0.12001 2.38806,-0.57246 0.98623,-0.418 1.38328,-0.4353 1.71994,-0.0749 0.29979,0.32093 0.33033,0.52812 0.3577,2.42673 0.0207,1.4372 0.0107,1.55472 -0.15156,1.778 -0.37173,0.51154 -1.36056,0.79866 -3.28872,0.95492 -1.23838,0.10036 -3.53131,0.0996 -4.40233,-0.001 z m 2.29147,-11.88248 c 0.16428,-0.19099 0.1967,-0.3231 0.1953,-0.79579 -0.006,-1.88639 -0.45753,-2.71847 -1.51678,-2.79249 -0.38866,-0.0272 -0.52232,0.002 -0.76296,0.16534 -0.39737,0.27006 -0.54935,0.56123 -0.81025,1.55238 -0.31994,1.21544 -0.21637,1.84901 0.34,2.07993 0.0931,0.0387 0.66172,0.0589 1.26352,0.045 1.07024,-0.0248 1.09849,-0.0303 1.29117,-0.25433 z m 11.86476,11.84146 c -1.10963,-0.26908 -2.00421,-0.83263 -2.61807,-1.64925 -0.73085,-0.97225 -1.56402,-2.98673 -1.82001,-4.40044 -0.17093,-0.94399 -0.29933,-4.74096 -0.20474,-6.05421 0.18939,-2.62916 0.95778,-5.01292 1.99988,-6.2042 0.74436,-0.85092 2.00438,-1.59091 3.06385,-1.79935 0.75739,-0.149 2.02515,-0.0596 2.80313,0.19765 0.34401,0.11376 0.70071,0.18715 0.79265,0.16312 0.41892,-0.10955 0.50109,-1.10726 0.27564,-3.34686 -0.14255,-1.41597 -0.0955,-1.82314 0.25045,-2.16753 l 0.22062,-0.21962 2.4677,0.0219 c 2.15709,0.0191 2.48718,0.0395 2.62248,0.16195 0.31985,0.28945 0.34976,0.65304 0.25418,3.08954 -0.0577,1.4718 -0.0687,4.13356 -0.0301,7.30995 0.0781,6.42913 0.0698,14.2783 -0.0153,14.4151 -0.0364,0.0585 -0.18417,0.16746 -0.32837,0.24202 -0.21323,0.11027 -0.42175,0.12549 -1.11647,0.0815 -0.46985,-0.0298 -1.38009,-0.02 -2.02277,0.0216 -1.51172,0.0979 -1.68203,0.0639 -1.78113,-0.35513 -0.0935,-0.3953 -0.23367,-0.45817 -0.53986,-0.24215 -0.43533,0.30711 -1.11737,0.61164 -1.65238,0.73778 -0.6556,0.15457 -1.97717,0.15289 -2.62135,-0.003 z m 3.40055,-6.27239 c 0.62317,-0.52437 1.02016,-2.02201 1.01572,-3.83192 -0.004,-1.56259 -0.10912,-2.22425 -0.47108,-2.96026 -0.2667,-0.54232 -0.35317,-0.64333 -0.67087,-0.78387 -0.43502,-0.19243 -0.69328,-0.12664 -1.12047,0.28542 -0.60332,0.58194 -0.82397,1.77582 -0.75925,4.10816 0.0442,1.59306 0.12598,2.10469 0.43601,2.72784 0.34564,0.69473 1.04419,0.89702 1.56994,0.45463 z m 31.21088,6.31651 c -0.87895,-0.10077 -1.93568,-0.37155 -2.47219,-0.63347 -0.50496,-0.24651 -1.46895,-1.05141 -2.20608,-1.842 -0.40729,-0.43682 -0.57754,-0.7058 -0.78147,-1.23463 -0.75427,-1.95587 -0.89353,-2.93422 -0.88766,-6.23604 0.005,-2.7273 0.12206,-4.58744 0.33344,-5.29167 0.58856,-1.96082 2.10663,-3.51298 4.09838,-4.19043 1.82458,-0.62058 3.92518,-0.62482 5.72602,-0.0115 2.13073,0.72559 3.28788,1.85775 3.98069,3.8947 0.41158,1.21008 0.47368,1.7871 0.46107,4.284 -0.0117,2.30779 -0.0133,2.32846 -0.21998,2.68106 -0.11453,0.19543 -0.32873,0.47582 -0.47599,0.62309 l -0.26776,0.26775 -0.98167,-0.0505 c -0.53992,-0.0278 -1.38173,-0.0194 -1.87068,0.0186 -0.4938,0.0384 -1.54104,0.0339 -2.35575,-0.01 -1.61202,-0.0869 -1.99194,-0.034 -2.35359,0.32761 -0.4201,0.42009 -0.20049,1.48143 0.43407,2.0977 1.04975,1.01952 3.94778,1.08787 5.8115,0.13707 0.76037,-0.38791 1.44141,-0.29238 1.71001,0.23987 0.18007,0.35682 0.269,3.39208 0.1105,3.77142 -0.23373,0.55939 -0.77325,0.81188 -2.21374,1.03595 -1.00715,0.15668 -4.59146,0.23472 -5.57912,0.12148 z m 2.30162,-11.89699 c 0.20265,-0.2356 0.20751,-0.27217 0.16765,-1.26256 -0.0433,-1.07659 -0.16342,-1.51951 -0.51369,-1.89465 -0.28485,-0.30508 -0.60318,-0.43765 -1.05008,-0.4373 -0.51149,0 -0.89616,0.22595 -1.11286,0.65254 -0.25811,0.50808 -0.54564,1.63251 -0.5476,2.14151 -0.004,0.94301 0.27453,1.10863 1.79698,1.06986 1.03753,-0.0264 1.05355,-0.0298 1.2596,-0.2694 z M 80.176527,192.55682 c -0.03514,-0.0351 -1.147268,-0.0656 -2.471395,-0.0678 -2.31582,-0.004 -2.414168,-0.0106 -2.582088,-0.17849 -0.125823,-0.12581 -0.173304,-0.27946 -0.170061,-0.55033 0.0025,-0.20669 0.01567,-5.72884 0.02933,-12.27146 0.01888,-9.04924 0.04912,-11.94038 0.126382,-12.08253 0.137694,-0.25333 0.25566,-0.26472 3.20195,-0.30893 2.376144,-0.0357 2.569946,-0.0275 2.810577,0.11887 0.318245,0.19354 0.400025,0.54679 0.309609,1.33725 -0.09764,0.85355 -0.122174,4.94348 -0.03068,5.11443 0.237058,0.44294 0.355143,0.22261 2.393484,-4.46609 0.923053,-2.12326 0.998982,-2.2126 1.855784,-2.18367 0.287714,0.01 1.579295,0.0288 2.870183,0.0423 2.314236,0.0243 2.34977,0.0274 2.539999,0.21764 0.338049,0.33812 0.261578,0.85165 -0.294436,1.97725 -0.261476,0.52934 -0.724493,1.48977 -1.028929,2.13427 -0.304436,0.6445 -0.85824,1.73035 -1.230664,2.413 -0.372431,0.68265 -0.864751,1.66036 -1.094045,2.1727 -0.229295,0.51234 -0.557801,1.16807 -0.730022,1.45717 l -0.313131,0.52565 0.146245,0.44783 c 0.08043,0.24631 0.330945,0.85484 0.5567,1.35229 0.225755,0.49745 0.578028,1.3928 0.782828,1.98967 0.636456,1.85491 2.586101,7.04241 3.073722,8.17837 0.540164,1.25839 0.658114,1.90293 0.400337,2.18776 -0.24522,0.27098 -0.597594,0.42168 -0.989778,0.42331 -0.195741,8.5e-4 -1.454396,-0.0106 -2.797014,-0.0254 l -2.44111,-0.0269 -0.243975,-0.27306 c -0.1455,-0.16284 -0.309101,-0.50458 -0.405316,-0.84666 -0.08874,-0.31549 -0.280797,-1.00458 -0.426796,-1.53132 -0.146,-0.52674 -0.508263,-1.61259 -0.80502,-2.413 -0.296756,-0.80041 -0.661458,-1.85168 -0.810454,-2.33615 -0.197079,-0.64081 -0.339928,-0.94988 -0.524205,-1.13416 -0.449225,-0.44922 -0.476242,-0.32323 -0.504673,2.35369 -0.01384,1.30386 0.007,3.1024 0.04644,3.99675 0.06358,1.44384 0.05601,1.6499 -0.06758,1.83852 -0.07656,0.11684 -0.205867,0.24745 -0.287359,0.29025 -0.21927,0.11515 -0.821224,0.20053 -0.894833,0.12691 z m 13.158266,-0.0596 c -0.158623,-0.0533 -0.362737,-0.19711 -0.453585,-0.31969 -0.158386,-0.21369 -0.165168,-0.38932 -0.165015,-4.27566 8.5e-5,-2.22905 0.04563,-4.85292 0.101227,-5.83082 0.05921,-1.04145 0.08921,-3.21603 0.07242,-5.24933 -0.02594,-3.14351 -0.01504,-3.49619 0.115519,-3.73457 0.227424,-0.41524 0.520827,-0.48929 1.703045,-0.42982 0.5673,0.0285 1.516964,0.013 2.110359,-0.0346 1.3081,-0.10485 1.474978,-0.0534 1.672581,0.5153 0.07714,0.22203 0.192727,0.39199 0.277724,0.40836 0.08008,0.0154 0.369688,-0.10809 0.643577,-0.27447 1.148335,-0.69757 2.570885,-0.97644 3.741425,-0.73344 1.6267,0.3377 2.9371,1.69383 3.44343,3.56357 0.16992,0.62749 0.18966,2.80569 0.0994,10.96434 -0.0537,4.84949 -0.0582,4.89517 -0.51725,5.25628 -0.19259,0.15149 -0.36927,0.16238 -2.63257,0.16238 -2.41126,0 -2.4273,-0.001 -2.61899,-0.1927 -0.17664,-0.17651 -0.19165,-0.26192 -0.17856,-1.016 0.0276,-1.58476 0.11672,-10.39541 0.11029,-10.89647 -0.0143,-1.11804 -0.68279,-1.74665 -1.474025,-1.38614 -0.658699,0.30012 -0.801286,1.72475 -0.835491,8.34722 -0.01752,3.39231 -0.05213,4.7711 -0.122987,4.89964 -0.182914,0.33181 -0.518109,0.39841 -1.520605,0.30212 -0.502048,-0.0482 -1.084266,-0.0726 -1.293816,-0.0541 -1.062601,0.0937 -2.014017,0.0972 -2.278067,0.009 z m 34.452097,-0.0665 c -0.35735,-0.21731 -0.61632,-1.11026 -1.48209,-5.11037 -0.26206,-1.21074 -0.56879,-2.56803 -0.68165,-3.01621 -0.11286,-0.44819 -0.3398,-1.55309 -0.50431,-2.45534 -0.36523,-2.003 -0.49311,-2.60386 -1.19602,-5.61979 -0.58517,-2.51068 -0.63354,-3.00631 -0.32653,-3.34554 0.24536,-0.27112 0.63423,-0.31081 2.96589,-0.30275 2.88145,0.01 2.80533,-0.0343 3.08144,1.7933 0.0913,0.60422 0.46979,2.46892 0.84111,4.14379 0.37133,1.67486 0.7216,3.35 0.77837,3.72254 0.12159,0.79784 0.19713,0.97366 0.41837,0.97366 0.12739,0 0.19442,-0.10866 0.30033,-0.48683 0.075,-0.26776 0.26054,-0.89147 0.41235,-1.38603 l 0.27601,-0.8992 -0.19884,-0.96347 c -1.01682,-4.92692 -1.17051,-5.97051 -0.95044,-6.45352 0.17635,-0.38705 0.32249,-0.4081 2.93524,-0.42278 l 2.46267,-0.0138 0.26024,0.24919 c 0.34738,0.33263 0.41756,0.62389 0.51111,2.12147 0.0436,0.6985 0.13635,1.7653 0.20601,2.37067 0.0697,0.60537 0.16772,1.71027 0.21789,2.45533 0.14873,2.20845 0.18562,2.50866 0.31434,2.55805 0.20724,0.0795 0.16666,0.24653 0.62155,-2.55805 0.1435,-0.88476 0.29457,-1.76106 0.33568,-1.94733 0.0411,-0.18627 0.22759,-1.17687 0.41438,-2.20133 0.35113,-1.92583 0.50743,-2.50735 0.74421,-2.76899 0.24343,-0.26899 0.6818,-0.32562 1.83764,-0.23739 0.72065,0.055 1.36109,0.0534 1.92799,-0.005 0.99683,-0.1023 1.33024,-0.0277 1.6057,0.35911 0.26676,0.37463 0.23084,0.9099 -0.16429,2.44805 -0.18651,0.72603 -0.53504,2.26908 -0.77451,3.429 -0.58107,2.81449 -0.63551,3.05077 -1.11025,4.8183 -0.22513,0.8382 -0.605,2.39685 -0.84416,3.46368 -0.47516,2.11952 -0.99292,3.97951 -1.27457,4.57869 -0.099,0.21066 -0.28754,0.47348 -0.41893,0.58403 -0.23548,0.19815 -0.27063,0.20153 -2.46692,0.23743 -1.22543,0.02 -2.35787,0.008 -2.51654,-0.0263 -0.54593,-0.11867 -0.6581,-0.32915 -1.14918,-2.15622 -0.53936,-2.00678 -0.5361,-1.99776 -0.71081,-1.96423 -0.0972,0.0187 -0.23157,0.34877 -0.45834,1.12599 -0.65408,2.24174 -0.82078,2.72309 -0.99888,2.88426 -0.16811,0.15212 -0.33588,0.16303 -2.58697,0.16832 -2.16226,0.005 -2.43235,-0.01 -2.65429,-0.14461 z m 19.99832,0.0773 c -0.13127,-0.0339 -0.32708,-0.15574 -0.43513,-0.27074 l -0.19644,-0.20911 -0.0257,-11.96359 c -0.0154,-7.1449 0.006,-12.08605 0.0526,-12.26763 0.15997,-0.62114 0.15914,-0.62094 2.77595,-0.68108 2.54914,-0.0586 2.74701,-0.0331 3.02371,0.38919 0.12747,0.19454 0.13688,0.33654 0.0747,1.1289 -0.0391,0.49851 -0.0622,2.54468 -0.0513,4.54704 0.0109,2.00237 0.0388,7.01587 0.062,11.14112 0.0273,4.86049 0.0126,7.57822 -0.0418,7.7214 -0.0462,0.12153 -0.18889,0.28962 -0.31708,0.37355 -0.2096,0.13723 -0.45707,0.1526 -2.45792,0.1526 -1.22367,0 -2.33227,-0.0277 -2.46355,-0.0616 z m 74.57564,0.008 c -0.35494,-0.0717 -0.66326,-0.37395 -0.75977,-0.74488 -0.0432,-0.16602 -0.0904,-1.29245 -0.10488,-2.50318 -0.0249,-2.08378 -0.0172,-2.21716 0.14534,-2.49767 0.33448,-0.57729 0.56976,-0.62746 2.96098,-0.63146 3.10562,-0.005 2.95808,-0.14756 2.97574,2.87139 0.007,1.16623 -0.024,2.29186 -0.0684,2.50141 -0.0856,0.40354 -0.3965,0.80147 -0.74837,0.95767 -0.22988,0.10205 -3.9321,0.14136 -4.40067,0.0467 z m 1.79847,-7.76905 c -1.20509,-0.051 -1.20522,-0.051 -1.46551,-0.31166 -0.2387,-0.23899 -0.26668,-0.32786 -0.33686,-1.06967 -0.0901,-0.95251 0.0202,-3.13919 0.21472,-4.25768 0.0729,-0.4191 0.37411,-1.4859 0.66934,-2.37067 0.62989,-1.88764 0.67105,-2.07478 0.55289,-2.5136 -0.11452,-0.42529 -0.64759,-0.96027 -1.08843,-1.09235 -0.2973,-0.0891 -0.40359,-0.079 -0.83904,0.0798 -0.62247,0.22696 -1.06343,0.23462 -1.27591,0.0221 -0.20307,-0.20307 -0.25742,-0.85307 -0.28517,-3.41073 -0.0199,-1.83301 -0.0128,-1.93019 0.15655,-2.159 0.37189,-0.50234 2.10613,-0.8746 4.07445,-0.8746 1.24275,0 2.10778,0.17339 2.84192,0.56964 0.55011,0.29694 1.40861,1.09357 1.74733,1.62143 0.52526,0.81854 0.78117,2.55803 0.60563,4.1166 -0.15361,1.36379 -0.38393,2.05856 -1.23569,3.72744 -1.35373,2.65239 -1.67986,3.72122 -1.7824,5.84147 -0.10462,2.16356 -0.12976,2.18404 -2.55382,2.08143 z"
       style="fill:#58585a;stroke-width:0.08466666;fill-opacity:1" />
    <g
       style="fill:#40aab8;fill-opacity:1"
       id="g1093">
      <path
         style="fill:#40aab8;stroke-width:0.31999999;fill-opacity:1"
         d="M 288.96094 567.88867 C 282.24011 567.89684 279.90694 568.33942 275.95703 570.35742 C 269.96851 573.41706 266.55599 577.80275 264.32617 585.30859 C 262.25192 592.29078 262.02456 593.97619 261.84961 603.58594 C 261.55142 619.96471 262.67807 626.59214 267.00586 633.91992 C 270.45917 639.76712 274.88044 642.99495 281.2793 644.33789 C 284.57155 645.02883 294.15927 644.76092 297.43945 643.88672 C 301.22669 642.87747 304.34081 641.17849 307.0625 638.63672 C 314.08306 632.0803 316.46825 623.36844 316.47656 604.25586 C 316.48151 592.59689 315.53717 586.62309 312.79688 580.96094 C 309.929 575.03517 304.26414 570.47432 297.42188 568.58398 C 295.22239 567.97639 294.0844 567.88111 288.96094 567.88867 z M 289.2168 587.83984 C 291.92044 587.83984 294.09524 590.63254 294.89844 595.13672 C 295.41238 598.0188 295.50423 610.34667 295.04688 615.04492 C 294.60337 619.60088 293.41161 622.00793 291.07227 623.07031 C 288.75124 624.12442 286.61645 623.67101 285.03125 621.78711 C 283.54695 620.02317 283.17372 618.05556 282.80469 610.08594 C 282.07779 594.38843 283.9651 587.83984 289.2168 587.83984 z "
         transform="matrix(0.26458333,0,0,0.26458333,-49.590469,22.093388)"
         id="path1046" />
      <path
         style="fill:#40aab8;stroke-width:0.08466666;fill-opacity:1"
         d="m 38.473038,192.52376 c -1.385358,-0.17439 -2.66473,-0.63631 -2.944613,-1.06317 -0.138532,-0.21127 -0.15908,-0.4699 -0.184472,-2.32213 -0.03278,-2.39119 0.0099,-2.61949 0.530809,-2.83712 0.427711,-0.17871 0.654812,-0.15663 1.519716,0.14774 0.719379,0.25316 0.850028,0.27193 1.91505,0.27517 0.93759,0.003 1.192191,-0.0234 1.416736,-0.14613 0.71501,-0.39077 0.694343,-1.39873 -0.04111,-2.00495 -0.162594,-0.13403 -0.60391,-0.40893 -0.980711,-0.6109 -0.978484,-0.52449 -1.934531,-1.22917 -2.702644,-1.99206 -1.077858,-1.07054 -1.439969,-2.02428 -1.440417,-3.79382 0,-1.20677 0.140521,-1.8261 0.629149,-2.76693 0.929174,-1.78909 1.601258,-2.35422 3.321042,-2.79258 0.56846,-0.1449 1.039181,-0.18234 2.729077,-0.21706 2.813939,-0.0578 3.836162,0.0893 4.109847,0.59161 0.160968,0.2954 0.177199,4.35377 0.01838,4.59615 -0.299576,0.45721 -0.771652,0.47731 -1.808167,0.077 -0.427431,-0.16506 -0.947716,-0.33199 -1.156191,-0.37094 -1.095891,-0.20473 -1.926844,0.57301 -1.497059,1.40119 0.117602,0.22661 0.342028,0.41723 0.834627,0.70891 0.370569,0.21942 1.150019,0.68053 1.732103,1.02469 1.244193,0.73564 1.613763,1.05383 2.181572,1.87831 0.901048,1.30834 1.071143,1.88856 1.072718,3.65898 0.0011,1.18211 -0.01554,1.31687 -0.239742,1.94733 -0.508085,1.42871 -0.873125,2.07051 -1.565114,2.75169 -0.929141,0.91462 -1.999378,1.43152 -3.599113,1.73829 -0.836515,0.16041 -2.997978,0.22816 -3.851478,0.12073 z"
         id="path1042" />
      <path
         style="fill:#40aab8;stroke-width:0.31999999;fill-opacity:1"
         d="M 400.48047 570.43359 C 393.73868 570.43718 391.47712 570.90193 386.7207 573.26172 C 380.69993 576.24879 376.82066 580.61165 374.69531 586.78906 C 372.9493 591.86402 372.6541 616.14184 374.25391 623.03906 C 375.69838 629.2667 377.57444 633.33353 380.17773 635.88086 C 386.09825 641.67408 389.31472 643.28476 396.67383 644.13867 L 396.67578 644.14062 C 399.88867 644.51215 409.50037 644.52412 413.75977 644.16016 C 420.82882 643.55592 424.51773 642.37817 425.44141 640.43164 C 425.91271 639.43838 425.94272 638.58315 425.70117 632.95312 C 425.43996 626.86495 425.39551 626.56412 424.6582 625.7793 C 423.6039 624.65716 422.30594 624.71745 419.10156 626.04297 C 415.13337 627.68446 413.36459 628.12391 409.80859 628.34766 C 406.318 628.56744 401.86218 627.99718 399.56445 627.03711 C 397.75805 626.28234 395.68572 624.20043 394.88281 622.33398 C 393.84765 619.92767 394.07024 617.16502 395.38477 616.10547 C 397.0311 614.7784 398.36303 614.61127 404.48047 614.95898 C 407.91113 615.15363 411.44319 615.16605 413.59961 614.99219 C 415.53561 614.83609 418.66996 614.80017 420.56445 614.91016 L 424.00977 615.10938 L 425.11133 613.90625 C 427.15326 611.67697 427.17443 611.54925 427.23438 601.89062 C 427.29498 592.12051 427.00334 589.90655 424.9707 584.76367 C 422.25822 577.90062 417.52388 573.8824 409.11914 571.31055 C 406.42919 570.48748 405.8604 570.43042 400.48047 570.43359 z M 399.79297 585.63086 C 400.83107 585.55769 401.89337 585.73599 402.8125 586.20508 C 405.48194 587.56752 406.41091 589.70608 406.64062 595.02539 C 406.82024 599.1848 406.64976 599.93029 405.32422 600.79883 C 404.4327 601.38292 397.20261 601.71079 395.58789 601.24023 C 393.15586 600.5315 392.60486 597.02799 394.10742 591.82422 C 394.56262 590.24782 395.22552 588.48568 395.58008 587.9082 C 396.40038 586.57219 398.0628 585.75281 399.79297 585.63086 z "
         transform="matrix(0.26458333,0,0,0.26458333,-49.590469,22.093388)"
         id="path1040" />
      <path
         style="fill:#40aab8;stroke-width:0.08466666;fill-opacity:1"
         d="m -18.263335,192.30356 c -0.452383,-0.19022 -0.6426,-0.73187 -1.016303,-2.894 -0.134245,-0.77669 -0.422958,-2.09798 -0.641584,-2.93618 -0.911876,-3.49609 -1.135544,-4.40616 -1.508611,-6.13833 -0.215631,-1.00118 -0.564283,-2.42993 -0.774783,-3.175 -0.545136,-1.92951 -0.84639,-3.27836 -1.22912,-5.50333 -0.184235,-1.07104 -0.394372,-2.27039 -0.46697,-2.66523 -0.160982,-0.87554 -0.111606,-1.19291 0.230365,-1.48065 l 0.26037,-0.21909 1.620583,0.009 c 0.891322,0.005 1.946838,-0.0175 2.34559,-0.0504 1.318437,-0.10865 1.476398,0.10509 1.90061,2.57187 0.379354,2.20592 0.465063,2.59384 1.0141,4.58985 0.602943,2.19199 1.185777,4.54026 1.307693,5.26877 0.123985,0.74087 0.239717,0.98426 0.498947,1.04932 0.346077,0.0869 0.409227,-0.0463 0.729746,-1.53851 0.08002,-0.37253 0.314951,-1.31707 0.522077,-2.09897 l 0.376592,-1.42164 -0.168429,-0.56803 c -0.251246,-0.84733 -0.474746,-1.85981 -0.723457,-3.27736 -0.122553,-0.6985 -0.335112,-1.64813 -0.472354,-2.11029 -0.39376,-1.32599 -0.315261,-2.25754 0.208962,-2.47977 0.09708,-0.0412 1.325024,-0.073 2.728766,-0.0707 2.4293299,0.004 2.5612617,0.0122 2.7391684,0.17323 0.3352715,0.30339 0.4097037,0.58088 0.5010429,1.86795 0.087228,1.22913 0.4302193,3.41208 0.94372,6.00626 0.1382632,0.6985 0.2917885,1.7653 0.3411669,2.37066 0.1340468,1.64339 0.3133691,2.83919 0.4591228,3.06163 0.1681666,0.25666 0.5058266,0.26048 0.6656586,0.008 0.066206,-0.10478 0.1658713,-0.5334 0.2214787,-0.9525 0.055607,-0.4191 0.2329087,-1.42566 0.3940031,-2.23679 0.1610944,-0.81113 0.3863738,-2.22083 0.5006204,-3.13267 0.1142467,-0.91183 0.3037332,-2.20004 0.4210812,-2.86271 0.117348,-0.66266 0.2446384,-1.77793 0.2828671,-2.47838 0.063736,-1.16782 0.085944,-1.29105 0.2674781,-1.48429 0.325197,-0.34616 0.6998385,-0.39564 2.3523506,-0.31069 0.82352302,0.0423 1.81742753,0.0592 2.20867472,0.0375 1.23840748,-0.0686 1.70164078,0.21076 1.70164078,1.02638 0,0.23716 -0.1526862,1.12458 -0.3393034,1.97204 -0.1866163,0.84747 -0.5100785,2.55757 -0.718803,3.80024 -0.2087253,1.24266 -0.53544722,2.85517 -0.72604797,3.58336 -0.79485826,3.03674 -1.26472607,4.94397 -1.47340569,5.98065 -0.12185819,0.60536 -0.31493034,1.46261 -0.42904914,1.905 -0.1141197,0.44238 -0.396842,1.58538 -0.6282724,2.54 -0.5070043,2.09131 -0.9467308,3.50797 -1.2107384,3.90062 -0.1121867,0.16685 -0.3153774,0.32961 -0.4776461,0.3826 -0.1819241,0.0594 -1.1527561,0.0869 -2.7286,0.0773 -2.4296742,-0.0148 -2.447604,-0.0163 -2.6544692,-0.21059 -0.2306363,-0.21667 -0.2721763,-0.34349 -0.8879104,-2.71059 -0.5143146,-1.9772 -0.6468566,-2.34521 -0.9057686,-2.51485 -0.177837,-0.11653 -0.218042,-0.11571 -0.407223,0.008 -0.36989,0.24236 -0.674021,1.0137 -1.235397,3.13326 -0.356553,1.34621 -0.576738,1.83941 -0.941669,2.10925 -0.213175,0.15762 -0.374188,0.16931 -2.480878,0.18004 -1.600935,0.008 -2.323742,-0.0183 -2.497683,-0.0914 z"
         id="path1036" />
      <path
         style="fill:#40aab8;stroke-width:0.08466666;fill-opacity:1"
         d="m 4.1075812,192.38206 c -0.3216436,-0.11848 -0.3391899,-0.36608 -0.2987413,-4.21534 0.021531,-2.04894 0.026518,-4.65879 0.011085,-5.79967 -0.036687,-2.71188 -0.033466,-3.81784 0.015903,-5.461 0.022386,-0.74507 0.00758,-2.95487 -0.032912,-4.91067 -0.080835,-3.90482 -0.063757,-4.10899 0.3809162,-4.55366 l 0.2512365,-0.25124 0.8637303,0.0712 c 1.0515185,0.0867 1.2928752,0.0863 2.4474347,-0.004 0.778333,-0.0607 0.9363871,-0.0511 1.1188547,0.0685 0.4188325,0.27443 0.4301075,0.35243 0.4301075,2.97556 0,2.66262 0.031931,2.87266 0.4527804,2.97828 0.1166453,0.0293 0.3291878,0.007 0.4723178,-0.0491 1.358556,-0.53414 1.777439,-0.63093 2.715568,-0.62749 1.043166,0.004 1.614558,0.15732 2.273585,0.61075 1.064531,0.73241 1.885728,2.19098 2.178747,3.86978 0.05267,0.30176 0.102647,3.28614 0.126401,7.54824 0.04232,7.59366 0.05177,7.40531 -0.383043,7.63801 -0.208817,0.11175 -4.486212,0.11738 -4.778416,0.006 -0.117013,-0.0445 -0.279498,-0.18276 -0.361078,-0.30727 -0.137251,-0.20946 -0.147169,-0.57171 -0.132814,-4.85094 0.0085,-2.54351 0.05103,-5.01733 0.09443,-5.49736 0.09151,-1.01199 0.01382,-1.72422 -0.24678,-2.26256 -0.249299,-0.51498 -0.55492,-0.71698 -1.084776,-0.71698 -0.500073,0 -0.8902814,0.26948 -1.0931046,0.7549 -0.178844,0.42804 -0.2727359,3.08405 -0.1985315,5.61606 0.033773,1.15241 0.037363,2.2827 0.00798,2.51176 -0.029385,0.22905 -0.029415,1.24832 -6.6e-5,2.26503 0.029349,1.01672 0.020219,1.97277 -0.020287,2.12455 -0.1332907,0.49945 -0.2054234,0.51271 -2.7745808,0.51007 -1.2805833,-0.001 -2.37676,-0.0202 -2.435948,-0.042 z"
         id="path1034" />
    </g>
    <g
       style="fill:#40aab8;fill-opacity:1"
       id="g1055">
      <path
         style="fill:#40aab8;stroke-width:0.08466666;fill-opacity:1"
         d="m 49.1,119.46005 c -0.103234,-0.66963 -0.152823,-6.35858 -0.06633,-7.60935 0.0495,-0.71593 0.109,-1.32068 0.132216,-1.34389 0.02322,-0.0232 0.377249,0.0356 0.786756,0.13061 0.409499,0.0951 1.3351,0.21415 2.056884,0.26465 0.721783,0.0505 1.655233,0.13388 2.074333,0.1853 0.966097,0.11854 4.40458,0.0383 5.334,-0.12449 0.372533,-0.0652 0.689847,-0.10748 0.705138,-0.0939 0.04572,0.0407 -0.271645,8.67545 -0.321844,8.75667 -0.0257,0.0416 -2.404042,0.0873 -5.350865,0.10277 l -5.304612,0.0279 z"
         id="path978" />
      <path
         style="fill:#40aab8;stroke-width:0.08466666;fill-opacity:1"
         d="m 60.772527,106.9526 c -0.09313,-0.024 -1.217083,-0.42372 -2.497666,-0.88834 -1.280583,-0.46463 -3.109383,-1.1109 -4.064,-1.43617 -1.561143,-0.53192 -1.832559,-0.59903 -2.699266,-0.66737 -1.018024,-0.0803 -1.554226,-0.25566 -1.603926,-0.52462 -0.01514,-0.0819 0.166159,-0.64073 0.402878,-1.2418 0.23672,-0.60107 0.455278,-1.21984 0.48569,-1.37505 0.0304,-0.15521 0.271391,-0.60605 0.535517,-1.001863 0.912851,-1.367964 2.437503,-3.856678 3.086193,-5.037667 0.805934,-1.467232 3.404912,-6.711103 4.091373,-8.255 1.541314,-3.466519 2.746451,-7.204679 2.756856,-8.551333 0.01404,-1.818665 -1.737478,-4.572667 -3.414649,-5.369023 -0.493488,-0.234317 -0.629047,-0.260655 -1.312333,-0.254968 -0.925576,0.0077 -1.531577,0.215999 -2.110189,0.725315 -0.80684,0.710202 -0.959511,1.04925 -1.824643,4.052009 -0.816077,2.832518 -1.431603,4.423872 -1.759839,4.549828 -0.353712,0.135731 -1.565292,-0.764685 -3.308392,-2.458701 -1.409421,-1.369744 -2.578447,-2.380061 -3.546958,-3.065435 -0.196918,-0.139347 -0.358843,-0.278536 -0.359833,-0.30931 -0.0045,-0.139108 2.522965,-4.240119 3.063172,-4.97025 2.54066,-3.433877 4.990583,-5.399397 7.364476,-5.908357 0.505748,-0.108431 0.977214,-0.123735 2.566873,-0.08332 3.64578,0.09269 5.344058,0.433363 7.635722,1.531723 1.703781,0.816595 3.047441,1.79249 4.605189,3.344717 1.577704,1.572119 2.917038,3.529655 3.68057,5.379439 0.313343,0.759111 0.314359,0.76553 0.268004,1.693333 -0.110066,2.203237 -0.824552,4.460591 -2.42537,7.662683 -0.945616,1.891513 -1.500157,2.763848 -3.025038,4.758634 l -0.860255,1.12535 -1.577772,3.974212 -1.577764,3.974213 -1.080888,4.322971 c -0.782515,3.12963 -1.114501,4.32639 -1.202648,4.33535 -0.06696,0.007 -0.19795,-0.007 -0.291084,-0.0312 z"
         id="path974" />
    </g>
    <g
       style="fill:#f16b52;fill-opacity:1"
       id="g1086">
      <path
         style="fill:#f16b52;stroke-width:0.08466666;opacity:1;fill-opacity:1"
         d="m 81.302043,160.32756 c -0.0221,-0.0199 -1.259383,-0.0801 -2.749516,-0.1336 -2.860667,-0.10276 -4.139353,-0.1738 -4.086132,-0.22702 0.01772,-0.0177 1.992097,0.003 4.387503,0.0472 2.395414,0.0436 5.041095,0.0877 5.879295,0.0978 0.8382,0.0101 1.6383,0.0452 1.778,0.0779 0.1397,0.0327 -0.889,0.0645 -2.286,0.0707 -1.397,0.006 -2.617165,0.0319 -2.711484,0.0573 -0.09432,0.0253 -0.189568,0.0298 -0.211666,0.01 z"
         id="path1032" />
      <path
         style="fill:#f16b52;stroke-width:0.08466666;opacity:1;fill-opacity:1"
         d="m 87.209693,160.21329 c 0.05821,-0.0235 0.153459,-0.0235 0.211667,0 0.05821,0.0235 0.01058,0.0427 -0.105833,0.0427 -0.116417,0 -0.164042,-0.0192 -0.105834,-0.0427 z"
         id="path1030" />
      <path
         style="fill:#f16b52;stroke-width:0.31999999;opacity:1;fill-opacity:1"
         d="M 639.29688 314.11328 C 638.96946 314.18916 637.9032 315.75997 635.77148 319.29102 C 621.26358 343.32239 604.45892 362.74366 587.51953 375.05664 L 583.19922 378.19727 L 581.79102 382.13867 C 577.73728 393.47801 572.26425 403.66544 567.86133 408.06836 C 566.36845 409.56123 565.46749 410.10822 562.16406 411.52539 C 560.00579 412.4513 556.44023 414.03291 554.24023 415.03906 C 543.46875 419.96522 538.97061 421.16927 529.75977 421.59961 C 527.47176 421.70657 525.24078 421.87722 524.80078 421.97852 L 524 422.16211 L 524.93945 422.42969 C 526.07862 422.75314 533.5476 422.23174 537.19922 421.57422 C 540.76031 420.93302 544.7011 419.76525 549.08594 418.05078 C 551.09121 417.26672 552.80581 416.70031 552.89648 416.79102 C 553.17892 417.07346 545.26138 420.69212 542.40625 421.58594 C 540.9138 422.05316 538.05344 422.71617 536.05078 423.05859 C 532.59411 423.64952 530.61599 423.78157 519.64453 424.15234 C 512.57627 424.39132 508.07218 425.51188 501.59961 428.64258 C 490.73919 433.89555 479.44445 444.39701 471.00781 457.08594 C 468.26861 461.20574 464.70807 468.12023 463.74023 471.19922 C 463.28762 472.63899 462.98812 473.11914 462.54297 473.11914 C 462.1759 473.11914 461.87242 472.81501 461.75 472.32031 L 461.55273 471.51953 L 461.30664 472.26367 C 461.14269 472.76015 461.22023 473.18391 461.53711 473.54297 C 461.79789 473.83834 462.08108 474.72753 462.16797 475.51953 C 462.33827 477.07216 460.91933 486.67978 460.44531 487.18359 C 460.28797 487.3508 460.16016 488.39511 460.16016 489.50391 C 460.16016 491.27953 460.08672 491.51953 459.54492 491.51953 C 458.68555 491.51953 458.11016 489.62217 458.35156 487.58398 C 458.50142 486.31875 458.43249 485.89744 458.02539 485.59961 C 457.20741 485.00146 455.06645 473.20745 454.71484 467.35938 C 453.99032 455.30911 453.95723 453.71303 454.42188 453.42578 C 454.70633 453.25 455.08588 453.34646 455.48047 453.69531 C 456.08065 454.22607 456.09056 454.19823 455.89062 452.48047 C 455.77802 451.51246 455.68484 447.47953 455.68164 443.51953 L 455.67969 436.32031 L 448.56055 432.71484 C 444.64477 430.73184 441.27957 429.11202 441.08398 429.11523 C 440.88242 429.1183 440.79246 429.45104 440.875 429.88281 C 440.95516 430.30219 440.85007 430.75078 440.64258 430.87891 C 440.41109 431.02196 441.23161 431.66193 442.76367 432.53516 C 445.833 434.28451 446.08008 434.4851 446.08008 435.23828 C 446.08008 436.08236 444.67523 436.0272 441.11719 435.04297 C 439.5344 434.60503 438.09593 434.25025 437.91992 434.25781 C 437.74392 434.26348 439.68824 435.10415 442.24023 436.125 C 447.32206 438.15782 449.63263 439.2538 449.99414 439.80273 C 450.35137 440.34517 450.2859 443.15689 449.89844 443.88086 C 449.62506 444.39147 449.46314 444.44412 449.09766 444.14062 C 448.71086 443.81969 448.64063 444.01512 448.64062 445.40039 C 448.64062 446.30192 448.49922 447.03906 448.32812 447.03906 C 448.0349 447.03906 447.32524 444.89784 446.88477 442.68164 L 446.6875 441.68164 L 438.46289 439.60547 C 433.93991 438.46367 423.02216 435.33009 414.19922 432.64258 L 398.15625 427.75781 L 391.31836 422.41211 C 387.55731 419.47281 369.93615 405.72054 352.16016 391.85156 C 334.38415 377.98259 319.65588 366.49052 319.43164 366.3125 C 319.20739 366.13297 318.94732 366.06447 318.85352 366.1582 C 318.7597 366.25201 317.96967 370.18689 317.09766 374.90234 L 315.51172 383.47656 L 316.25586 384.29883 C 317.42604 385.59339 334.06445 403.41581 349.28711 419.67969 C 366.77405 438.3628 370.49858 442.54008 369.69922 442.57031 C 369.55685 442.57583 358.29133 431.37894 344.66406 417.68945 C 331.03677 403.99997 320.24984 393.23177 320.69336 393.75977 C 321.13688 394.28777 323.44037 396.95166 325.8125 399.67969 C 328.18466 402.40767 335.20901 410.61591 341.42188 417.91992 C 354.44946 433.23423 354.91222 433.74578 355.25 433.19922 C 355.40987 432.9407 355.5957 432.91517 355.78906 433.12305 C 355.95143 433.29755 357.72169 435.31801 359.72266 437.61328 C 361.72362 439.90859 366.52102 445.34366 370.38477 449.69141 C 376.78835 456.89711 377.72298 457.81441 380.94531 460.06641 C 383.63811 461.94831 406.65078 479.15039 409.15625 481.1543 C 409.85612 481.71408 409.71309 482.43399 407.83984 487.79688 C 406.87184 490.56812 406.08657 493.36735 406.09375 494.01758 C 406.10645 495.18817 406.10974 495.1925 406.52539 494.40039 C 406.75627 493.96038 407.62952 491.36861 408.4668 488.64062 C 409.30411 485.9127 410.13614 483.49927 410.31445 483.2793 C 410.80098 482.67926 411.19922 482.79747 411.19922 483.54102 C 411.19922 483.90457 409.08896 491.53733 406.50781 500.50195 C 403.92669 509.46661 401.87912 516.86556 401.95898 516.94531 C 402.03889 517.02544 408.79541 517.16931 416.97266 517.26562 C 448.29365 517.63462 454.53845 517.78672 454.78711 518.18164 C 455.09488 518.67052 454.78296 519.73917 454.19727 520.20312 C 453.81611 520.50492 453.86286 520.5951 454.4707 520.74023 C 455.93486 521.09022 468.33704 521.32441 467.81641 520.99219 C 467.53973 520.81561 464.75079 520.60344 461.61719 520.51953 C 458.48362 520.43559 455.78274 520.22993 455.61523 520.0625 C 455.4478 519.89495 455.35631 519.34528 455.41406 518.83984 C 455.50328 518.05903 455.6788 517.90491 456.58008 517.81836 C 457.1636 517.76204 457.8159 517.8618 458.0293 518.03906 C 458.49618 518.42646 462.93898 518.45736 482.38867 518.21094 C 496.01011 518.0384 497.12837 517.98293 497.49805 517.45508 C 498.06426 516.64686 500.22293 516.5302 519.03906 516.28906 C 527.92706 516.17492 535.29317 516.0279 535.40625 515.96289 C 535.51934 515.89788 537.4617 515.98182 539.72461 516.15039 C 541.98752 516.31892 547.65631 516.60891 552.32031 516.79297 C 567.47061 517.39119 568.19977 517.48111 567.4707 518.6582 C 567.11667 519.22986 567.39949 519.26973 574.18945 519.63672 C 580.79153 519.99366 586.16824 520.41327 597.2793 521.43359 L 597.2793 521.43164 C 599.74328 521.65792 602.96589 521.86196 604.43945 521.88086 C 606.78718 521.91408 607.06993 521.86008 606.7207 521.43945 C 606.43195 521.09159 606.41663 520.84376 606.66797 520.54102 C 606.94803 520.20362 605.99358 520.01532 601.70117 519.55664 C 596.03286 518.95093 594.88086 518.68037 594.88086 517.96094 C 594.88086 517.26615 595.36453 517.18613 601.16406 516.91211 L 606.56055 516.65625 L 601.91992 516.41992 C 587.81503 515.69901 585.49689 515.42076 585.68359 514.4707 C 585.73666 514.20111 584.99164 514.03066 583.27539 513.91992 C 581.90924 513.8319 580.79032 513.61558 580.78711 513.43945 C 580.77781 512.91308 583.89833 512.71373 595.67969 512.48438 C 601.83967 512.36449 607.23967 512.18376 607.67969 512.08398 C 608.11966 511.9842 640.16085 511.84777 678.88086 511.78125 C 728.57734 511.69579 749.31371 511.56063 749.39648 511.31836 C 749.5516 510.86535 748.89996 495.31853 748.31055 485.43945 C 745.80994 443.52555 741.12759 414.43093 734.94727 402.40039 C 732.84551 398.30928 727.30165 393.24373 721.75977 390.35156 C 714.19958 386.40611 706.19005 386.60358 693.27344 391.05469 C 687.94812 392.88984 684.61088 394.33982 675.19922 398.90625 C 666.10651 403.3179 663.21855 404.42741 660.14258 404.69727 C 654.82781 405.16351 650.99368 402.08927 648.35742 395.24609 C 644.54732 385.35586 639.81018 359.78211 637.08594 334.40039 C 636.69869 330.79238 636.28671 327.72868 636.16992 327.59375 C 636.05329 327.45897 634.79946 329.1166 633.38281 331.27539 C 630.28931 335.98941 626.89512 340.60215 626.67969 340.38672 C 626.59393 340.301 628.16854 337.587 630.17773 334.35547 C 632.18697 331.1239 634.30286 327.6386 634.88086 326.61133 C 635.94774 324.71692 636.68401 324.09457 637.08789 324.74805 C 637.21069 324.94677 637.56268 327.23511 637.87109 329.83398 C 640.66787 353.41858 644.85412 376.37136 648.66797 389.04102 C 651.70561 399.13217 654.20737 402.32528 659.04883 402.29883 C 661.86306 402.28261 664.83397 401.18501 672.63477 397.28125 C 679.61979 393.78568 681.66677 392.53874 676.24023 395.08398 C 665.15824 400.28186 662.46627 401.2793 659.52734 401.2793 C 657.31855 401.2793 656.29498 400.85077 654.81836 399.30664 C 650.85235 395.15944 646.81679 376.78337 643.68945 348.64062 C 642.70651 339.79512 642.60477 339.13531 642.25781 339.34961 C 642.10905 339.44149 641.89382 339.27124 641.7793 338.97266 C 641.5503 338.37587 640.17162 323.8348 639.81445 318.24023 C 639.69086 316.30425 639.50143 314.47342 639.39258 314.17188 C 639.37495 314.12306 639.34359 314.10244 639.29688 314.11328 z M 447.94727 451.83984 C 448.56051 451.83984 449.36364 455.52274 451.36719 467.51953 C 453.22415 478.63837 456.32031 500.16392 456.32031 501.95312 C 456.32031 503.14727 456.22267 503.35938 455.67969 503.35938 C 455.32769 503.35937 455.03906 503.30764 455.03906 503.24414 C 455.03906 503.18061 453.46351 492.48876 451.53711 479.48438 C 447.55791 452.62214 447.45754 451.83984 447.94727 451.83984 z M 466.73242 484.76367 C 466.83824 484.85891 466.85542 485.50779 466.85742 487.03906 C 466.85874 488.53508 466.73193 490.7483 466.57617 491.95703 C 466.29988 494.10138 465.93978 494.95343 465.49805 494.51172 C 464.90509 493.91875 465.62844 486.62778 466.42969 485.11914 C 466.5732 484.84891 466.66893 484.70653 466.73242 484.76367 z M 464.5625 502.79297 C 464.61871 502.78196 464.68101 502.78944 464.74805 502.8125 C 465.00728 502.90162 465.11914 504.2667 465.11914 507.29297 C 465.11914 511.20089 465.18183 511.69119 465.72852 512.09375 C 466.06379 512.34067 466.23477 512.70915 466.10938 512.91211 C 465.9841 513.11469 465.45558 513.2793 464.93359 513.2793 C 463.52833 513.2793 463.33559 512.41806 463.70508 507.7793 C 464.01311 503.91229 464.16901 502.87002 464.5625 502.79297 z M 456.81445 507.19922 C 457.27952 507.19922 457.7589 509.66353 457.63867 511.43945 C 457.61336 511.81348 457.33489 512 456.80078 512 C 456.03744 512 456 511.9122 456 510.10547 C 456 507.9395 456.20732 507.19922 456.81445 507.19922 z M 452.5293 510.4668 C 455.02259 510.55403 455.20726 510.60722 455.30273 511.2793 C 455.40296 511.98418 455.3402 512 452.18164 512 C 449.65802 512 448.96094 511.90366 448.96094 511.55859 C 448.96094 510.64096 449.83931 510.37269 452.5293 510.4668 z M 446.9668 510.51953 C 447.62158 510.54533 448.12808 510.64817 448.29688 510.85156 C 448.51532 511.11501 448.60044 511.47989 448.48828 511.66406 C 448.22166 512.09716 442.34601 512.10999 442.08008 511.67969 C 441.69315 511.05323 445.00245 510.44215 446.9668 510.51953 z M 483.69531 511.73242 C 493.16381 511.71551 506.08016 511.72002 520.16016 511.74609 C 557.51808 511.81518 571.52603 511.93698 571.97266 512.20117 C 572.57549 512.55751 572.57549 512.5677 571.97266 512.75781 C 571.63598 512.86409 562.50368 513.0946 551.67969 513.27148 C 533.9608 513.561 499.44024 513.60008 475.75977 513.35938 C 467.2175 513.27248 466.88086 513.2453 466.88086 512.64844 C 466.88086 512.20056 467.16924 511.97628 467.91992 511.83984 C 468.20592 511.78693 474.22681 511.74934 483.69531 511.73242 z "
         transform="matrix(0.26458333,0,0,0.26458333,-49.590469,22.093388)"
         id="path1028" />
      <path
         style="fill:#f16b52;stroke-width:0.08466666;opacity:1;fill-opacity:1"
         d="m 59.544861,148.7024 c 0,-0.0699 -0.0381,-0.10346 -0.08467,-0.0747 -0.04657,0.0288 -0.08467,0.10947 -0.08467,0.17932 0,0.0699 0.0381,0.10346 0.08467,0.0747 0.04657,-0.0288 0.08467,-0.10947 0.08467,-0.17932 z"
         id="path1012" />
      <path
         style="fill:#f16b52;stroke-width:0.08466666;opacity:1;fill-opacity:1"
         d="m 124.69586,160.00328 c -0.5588,-0.0389 -1.5494,-0.10342 -2.20133,-0.14335 -1.11047,-0.068 -1.0356,-0.073 1.18533,-0.0793 2.2176,-0.006 3.30365,0.0558 3.00567,0.17169 -0.2589,0.10071 -1.00198,0.11974 -1.98967,0.051 z"
         id="path1010" />
      <path
         style="fill:#f16b52;stroke-width:0.08466666;opacity:1;fill-opacity:1"
         d="m 149.12219,159.63109 c -1.49946,-0.15606 -5.23724,-0.43944 -7.28133,-0.55204 -0.95462,-0.0526 -1.75154,-0.11107 -1.77095,-0.12996 -0.0194,-0.0189 1.64325,-0.0344 3.69476,-0.0344 3.50045,0 3.72931,0.009 3.71828,0.14817 -0.0102,0.12871 0.10495,0.15671 0.87724,0.2133 0.48895,0.0358 1.1557,0.0549 1.48167,0.0423 l 0.59266,-0.0228 0.0423,-1.18435 c 0.0382,-1.07004 0.0576,-1.18727 0.20028,-1.2146 0.14919,-0.0285 0.15492,0.023 0.10341,0.93035 -0.03,0.52833 -0.0762,1.17967 -0.10277,1.44743 -0.056,0.56584 0.10364,0.52925 -1.55559,0.35654 z"
         id="path1008" />
      <path
         style="fill:#f16b52;stroke-width:0.08466666;opacity:1;fill-opacity:1"
         d="m 114.17407,158.3584 c -2.06166,-0.0595 -3.79521,-0.12714 -3.85233,-0.15026 -0.0571,-0.0231 1.11865,-0.0451 2.61284,-0.0487 1.4942,-0.004 3.8183,-0.0243 5.16467,-0.0459 1.86355,-0.0299 2.32667,-0.0182 1.93994,0.0491 -0.2794,0.0486 -0.53847,0.14242 -0.57571,0.20856 -0.0792,0.14062 0.0321,0.14089 -5.28941,-0.0127 z"
         id="path1006" />
      <path
         style="fill:#f16b52;stroke-width:0.08466666;opacity:1;fill-opacity:1"
         d="m 145.98952,158.15272 c -0.28321,-0.0347 0.23523,-0.0625 1.32314,-0.0709 1.34099,-0.0103 1.81143,-0.0411 1.87919,-0.12272 0.12405,-0.14946 -0.0357,-3.97747 -0.37453,-8.97426 -0.0719,-1.06087 -0.11197,-1.97527 -0.089,-2.032 0.023,-0.0567 0.0448,0.0191 0.0485,0.16856 0.004,0.14944 0.0494,0.55901 0.10165,0.91017 0.0704,0.47355 0.12823,0.63845 0.2238,0.63845 0.11253,0 0.12151,-0.17958 0.0709,-1.41816 -0.29842,-7.30394 -1.37185,-13.35029 -3.21882,-18.13089 -0.16901,-0.43746 -0.29318,-0.8095 -0.27593,-0.82675 0.0697,-0.0698 0.74774,1.53098 1.10155,2.60082 0.20754,0.62754 0.63375,2.169 0.94712,3.42548 0.31338,1.25648 0.63941,2.41785 0.72451,2.58084 0.12639,0.24206 0.24105,1.26542 0.62605,5.588 0.48928,5.49311 0.53196,6.21572 0.37293,6.314 -0.0689,0.0426 -0.085,1.30106 -0.0586,4.59817 0.02,2.49671 0.0218,4.60617 0.004,4.68766 -0.0294,0.13477 -0.16376,0.14692 -1.48659,0.13437 -0.79986,-0.008 -1.66384,-0.0395 -1.91996,-0.0709 z"
         id="path1004" />
      <path
         style="fill:#f16b52;stroke-width:0.08466666;opacity:1;fill-opacity:1"
         d="m 122.32121,158.06162 c -0.0593,-0.096 6.19168,-0.17797 7.20065,-0.0945 0.7809,0.0646 0.41169,0.0813 -2.286,0.10351 -1.76953,0.0146 -3.5911,0.0316 -4.04791,0.038 -0.45682,0.006 -0.84685,-0.0148 -0.86674,-0.047 z"
         id="path1002" />
      <path
         style="fill:#f16b52;stroke-width:0.08466666;opacity:1;fill-opacity:1"
         d="m 72.49886,146.38405 c 0,-0.0466 0.04035,-0.0847 0.08966,-0.0847 0.04932,0 0.06612,0.0381 0.03734,0.0847 -0.02878,0.0466 -0.06913,0.0847 -0.08966,0.0847 -0.02054,0 -0.03734,-0.0381 -0.03734,-0.0847 z"
         id="path1000" />
      <path
         style="fill:#f16b52;stroke-width:0.08466666;opacity:1;fill-opacity:1"
         d="m 68.856585,138.63511 c -0.08948,-0.1078 -0.08423,-0.1202 0.03197,-0.0756 0.07644,0.0293 0.138972,0.0874 0.138972,0.12894 0,0.10887 -0.04901,0.0936 -0.170942,-0.0533 z"
         id="path998" />
      <path
         style="fill:#f16b52;stroke-width:0.08466666;opacity:1;fill-opacity:1"
         d="m 67.503527,138.15964 c -0.797822,-0.32293 -5.426202,-1.62048 -8.551333,-2.39733 -1.427404,-0.35483 -2.705549,-0.79441 -2.921,-1.00458 -0.05541,-0.0541 -0.0296,-0.0631 0.07464,-0.0262 0.08762,0.031 1.257741,0.38116 2.600266,0.77807 2.568245,0.75929 3.26075,0.90538 3.379656,0.71299 0.05361,-0.0867 0.70855,0.12054 2.933895,0.92859 1.57568,0.57214 2.880749,1.05479 2.900155,1.07256 0.0687,0.0629 -0.20762,0.0204 -0.416281,-0.0641 z"
         id="path996" />
      <path
         style="fill:#f16b52;stroke-width:0.08466666;opacity:1;fill-opacity:1"
         d="m 60.328027,134.09999 c -1.45448,-0.47831 -1.961007,-0.74425 -1.227666,-0.64456 0.330784,0.045 3.122599,1.15581 2.899833,1.15382 -0.06985,-8.5e-4 -0.822325,-0.2298 -1.672167,-0.50926 z"
         id="path994" />
      <path
         style="fill:#f16b52;stroke-width:0.08466666;opacity:1;fill-opacity:1"
         d="m 52.602194,130.90296 c -0.162983,-0.12948 -0.93969,-0.72827 -1.726023,-1.33066 -0.885622,-0.67846 -1.376968,-1.10566 -1.291166,-1.12262 0.222758,-0.044 0.163279,-0.19553 -0.237389,-0.60472 -0.325086,-0.33201 -0.361315,-0.40354 -0.267978,-0.52914 0.09643,-0.12976 0.195012,-0.048 0.925229,0.76775 0.44952,0.50215 1.309403,1.39618 1.910867,1.98674 1.071617,1.05219 1.278145,1.3027 0.68646,0.83265 z"
         id="path992" />
      <path
         style="fill:#f16b52;stroke-width:0.08466666;opacity:1;fill-opacity:1"
         d="m 48.961528,129.22061 c -4.985648,-3.81417 -6.157002,-4.71932 -6.307667,-4.87411 -0.09313,-0.0957 0.02117,-0.0337 0.254,0.13777 1.139012,0.83881 1.677577,1.16372 1.769821,1.06774 0.111015,-0.11549 -0.571906,-0.77027 -2.108487,-2.02159 -1.296399,-1.05573 -2.43636,-1.88051 -4.656667,-3.36923 -1.556122,-1.04337 -2.324549,-1.63247 -2.1294,-1.63247 0.03251,0 0.639233,0.38816 1.348257,0.86258 1.802274,1.20594 2.59715,1.67742 2.82796,1.67742 0.128295,0 0.422512,0.20769 0.831672,0.58706 0.810641,0.75164 2.104144,1.81003 3.36053,2.74971 0.666191,0.49827 0.974496,0.7798 0.943203,0.86133 -0.08605,0.22425 0.866471,1.14907 3.633944,3.52823 1.459806,1.25498 1.748257,1.51676 1.651,1.49832 -0.01164,-0.002 -0.649816,-0.48494 -1.418166,-1.07276 z"
         id="path990" />
      <path
         style="fill:#f16b52;stroke-width:0.08466666;opacity:1;fill-opacity:1"
         d="m 97.941193,122.04311 c -0.232833,-0.0641 -0.763346,-0.17805 -1.178916,-0.25321 -1.620765,-0.29313 -3.25142,-1.05877 -4.324417,-2.03045 -0.291034,-0.26356 -0.261265,-0.25136 0.211666,0.0867 1.351136,0.96593 3.178251,1.63297 4.656667,1.70006 1.067858,0.0485 1.275478,0.0855 1.248334,0.22246 -0.05944,0.30005 1.745633,0.0528 3.247403,-0.44488 1.19837,-0.3971 2.36874,-0.97628 3.5476,-1.75556 1.31042,-0.86628 2.08095,-1.50874 3.67957,-3.068 1.30643,-1.27426 1.35881,-1.31657 0.581,-0.46922 -0.47019,0.51224 -1.09722,1.15994 -1.39341,1.43934 -0.29618,0.2794 -0.67193,0.67077 -0.835,0.86971 -0.54735,0.66775 -3.49785,2.35654 -5.27007,3.01644 -1.72112,0.64089 -3.357695,0.91031 -4.170427,0.68657 z"
         id="path988" />
      <path
         style="fill:#f16b52;stroke-width:0.31999999;opacity:1;fill-opacity:1"
         d="M 577.30664 96.59375 C 575.98457 96.550069 574.69795 96.801392 573.53516 97.390625 C 570.36632 98.996399 568.38034 102.20023 567.56445 107.01562 C 567.35802 108.23399 567.01559 109.28708 566.80469 109.35742 C 566.58612 109.43029 565.92365 108.46612 565.26367 107.11328 C 562.16655 100.76484 558.54754 98.367081 554.03906 99.677734 C 551.58831 100.39019 550.09015 101.62636 548.84375 103.96484 C 546.7931 107.81233 546.41986 110.01146 546.42969 118.16602 L 546.43945 125.45117 L 545.25977 125.80469 C 544.56274 126.01351 543.88299 126.04358 543.5957 125.87891 C 543.32841 125.72571 542.25177 124.44093 541.20312 123.02344 C 540.15453 121.60594 538.73516 119.98116 538.04883 119.41406 C 535.39158 117.2184 532.17498 116.32392 529.7832 117.11328 C 528.14435 117.65415 525.79799 120.12082 524.51172 122.65625 C 523.91338 123.83563 523.3381 124.80979 523.23242 124.82227 C 523.12676 124.83481 522.10494 124.91228 520.96094 124.99414 C 516.17393 125.33679 513.34845 127.04655 512.44727 130.14648 C 511.85843 132.17206 511.99006 133.9238 512.96875 137.04297 C 513.51394 138.78059 514.03619 139.51794 516.98828 142.7207 C 518.85385 144.7447 520.50182 146.62648 520.65039 146.90234 C 521.02268 147.59367 516.05279 154.88086 515.20898 154.88086 C 514.88444 154.88086 512.04971 154.21574 508.91016 153.4043 C 503.77579 152.07719 502.9276 151.94225 500.48047 152.06641 C 494.69583 152.35988 492.17436 155.49662 492.54688 161.93164 C 492.6837 164.29532 492.771 164.54214 494.04492 166.19336 C 495.64761 168.27075 497.81839 170.34855 500.10352 171.99023 C 501.86879 173.25846 502.14817 174.02202 501.29492 175.24023 C 500.92311 175.77108 500.35597 175.94397 498.44531 176.10547 C 494.20861 176.4636 490.57244 178.31087 489.43359 180.68359 C 489.107 181.36405 488.75933 182.91826 488.66016 184.13867 L 488.48047 186.35742 L 486.80273 187.3418 C 484.55537 188.65931 482.42865 190.77039 481.57812 192.52734 C 480.99391 193.73409 480.904 194.36462 481.02344 196.42773 C 481.14296 198.49234 481.35665 199.24923 482.35156 201.125 C 483.00378 202.35472 483.95778 203.86447 484.4707 204.48047 L 485.40234 205.59961 L 486.30078 205.02148 C 488.04068 203.9 490.48967 202.86962 491.55859 202.81055 C 492.15293 202.77766 493.8273 202.77893 495.2793 202.81445 L 497.91992 202.88086 L 497.91406 204.56055 C 497.91099 205.48455 497.69461 207.53514 497.43359 209.11914 C 496.97987 211.87248 495.92901 221.48471 495.52539 226.56055 C 495.19358 230.73332 495.04464 231.35938 494.39453 231.35938 C 493.6456 231.35938 493.59435 231.83948 492.96875 244.64062 C 492.70212 250.09662 492.41958 255.71491 492.3418 257.12695 C 492.14775 260.65085 492.40717 262.40039 493.12305 262.40039 C 493.61603 262.40039 493.71055 261.89466 493.91211 258.13086 C 494.03788 255.78247 494.25678 253.67263 494.39844 253.44336 C 494.94138 252.56489 495.62906 253.40011 495.89453 255.25977 C 496.11957 256.83596 496.18474 256.30479 496.32031 251.77734 C 496.47071 246.75526 496.52235 246.39577 497.19922 245.76562 C 497.67808 245.31982 497.91992 244.7249 497.91992 243.98828 C 497.91992 243.37914 498.04596 242.88086 498.19922 242.88086 C 498.53935 242.88086 498.73906 244.65098 499.35938 253.11914 C 501.58529 283.50694 506.41943 308.34358 514.24219 329.59961 C 524.24301 356.77387 536.53281 371.0411 552.42578 373.92578 L 552.42773 373.92578 C 564.02067 376.02848 577.64807 371.16281 591.85352 359.8457 C 598.18955 354.79796 607.76259 344.66544 613.17578 337.2793 C 627.57446 317.6332 636.78183 296.59586 644.65039 265.35742 C 645.60873 261.55293 646.52706 258.30298 646.69336 258.13672 C 647.09595 257.73411 648 258.103 648 258.66992 C 648 260.31334 643.62251 277.40019 640.97461 286.09375 C 640.09776 288.97267 639.4285 291.37397 639.48633 291.43164 C 639.88983 291.8351 645.98352 272.51077 648.50586 262.83008 L 649.99219 257.12305 L 651.91406 255.06836 C 652.97097 253.93854 654.03432 252.53839 654.27734 251.95703 C 654.9306 250.39393 654.82783 247.14941 654.07227 245.48438 C 653.72428 244.71715 653.43945 243.76991 653.43945 243.37891 C 653.43945 242.9879 654.01669 240.04568 654.7207 236.83984 C 655.42468 233.63401 656 230.31344 656 229.46094 C 656 227.25508 656.92366 222.65774 657.49414 222.02344 C 657.75939 221.72855 658.72007 221.12334 659.63086 220.67773 C 661.45728 219.78415 662.97615 218.35489 663.91797 216.64062 L 664.5332 215.51953 L 670.26562 215.30859 C 673.419 215.19237 677.00822 214.93606 678.24023 214.73828 C 691.74585 212.57016 695.0736 206.84163 688.75586 196.64062 C 687.77481 195.05664 686.34 193.17642 685.56641 192.46289 L 684.16016 191.16602 L 685.16797 189.58203 C 688.05473 185.0519 688.0297 181.12346 685.0918 177.77734 C 683.48327 175.94535 682.29908 175.41066 678.74609 174.91406 C 676.94352 174.66212 675.38443 174.37091 675.28125 174.26758 C 675.17807 174.16426 675.04731 173.18448 674.99023 172.08984 C 674.86645 169.71161 673.68208 167.05 672.31445 166.07617 C 669.88142 164.34369 668.56878 164.01656 663.85352 163.96875 C 660.73673 163.93715 659.34978 163.80896 659.26172 163.54492 C 659.19236 163.33684 660.70352 161.5549 662.61914 159.58398 C 674.81896 147.03183 675.41614 146.36906 675.95312 144.79297 C 676.56681 142.99193 676.63941 140.08247 676.10938 138.52734 C 675.54377 136.86798 674.00597 134.78701 672.58789 133.75977 C 669.02531 131.17905 663.3636 132.10045 657.52344 136.21289 C 656.44068 136.97532 655.34981 137.59961 655.09961 137.59961 C 654.59104 137.59961 654.62308 137.39871 655.67969 133.91992 C 657.21508 128.86466 655.63206 125.13912 651.03906 122.99414 C 647.90878 121.53227 643.68616 122.2329 641.19141 124.62891 C 639.89631 125.87274 639.35171 125.59175 638.73047 123.35938 C 637.9904 120.70007 637.06306 119.0335 635.58398 117.69727 C 633.89816 116.17421 632.41894 115.72807 629.63672 115.9082 C 625.79264 116.15708 623.1011 117.79484 620.91211 121.2168 C 619.36681 123.63252 619.10011 123.16607 619.51562 118.75977 C 620.10723 112.48643 619.07582 107.50842 616.66992 105.0293 C 614.41124 102.7019 611.12158 102.17235 606.54102 103.40039 C 605.14391 103.77497 603.20825 104.25469 602.24023 104.4668 C 601.27226 104.67891 600.04332 105.08143 599.50977 105.35938 C 598.23682 106.02252 595.86481 108.57771 594.73828 110.5 C 593.58953 112.46018 592.99571 112.36236 592.17578 110.07617 C 591.76071 108.9186 591.02177 107.79496 590.00977 106.78125 C 589.16542 105.93544 588.16708 104.64053 587.79102 103.90234 C 585.56032 99.522472 581.27285 96.724794 577.30664 96.59375 z M 500.69141 202.89648 C 501.29847 202.87748 501.32546 203.93766 500.94727 207.51953 C 500.34874 213.18855 499.51953 226.03722 499.51953 229.64844 C 499.51953 232.41754 499.19605 233.60339 498.75391 232.45117 C 498.46177 231.68994 498.54333 220.58481 498.87695 215.67969 C 499.47071 206.94983 499.92381 203.14742 500.39453 202.9668 C 500.50544 202.92424 500.60468 202.8992 500.69141 202.89648 z M 654.26953 222.41406 C 654.51015 222.44945 654.71875 222.69236 654.71875 223.11914 C 654.71716 224.05722 651.89146 239.97908 651.66016 240.35352 C 651.44264 240.7055 650.65275 240.73111 650.44336 240.39258 C 650.30692 240.17181 653.1981 224.36161 653.63086 222.96094 C 653.75702 222.55258 654.02891 222.37867 654.26953 222.41406 z "
         transform="matrix(0.26458333,0,0,0.26458333,-49.590469,22.093388)"
         id="path986" />
      <path
         style="fill:#f16b52;stroke-width:0.08466666;opacity:1;fill-opacity:1"
         d="m 90.697613,119.60822 c -0.79447,-0.90581 -1.904958,-2.53734 -2.535623,-3.72533 -0.241021,-0.45403 -0.418533,-0.8255 -0.394471,-0.8255 0.02406,0 0.186665,0.23812 0.361341,0.52916 0.463397,0.77209 1.253693,1.87947 1.84498,2.58521 0.284175,0.33919 0.520818,0.68768 0.525873,0.77444 0.01305,0.22405 0.318761,0.62694 0.71208,0.93846 0.314122,0.24878 0.443874,0.50673 0.254889,0.50673 -0.0452,0 -0.391278,-0.35243 -0.769069,-0.78317 z"
         id="path980" />
      <path
         style="fill:#f16b52;stroke-width:0.08466666;opacity:1;fill-opacity:1"
         d="m 110.84601,114.57055 c 0.25057,-0.29104 0.47246,-0.52916 0.4931,-0.52916 0.056,0 -0.62714,0.80316 -0.79952,0.93997 -0.082,0.0651 0.0559,-0.11977 0.30642,-0.41081 z"
         id="path976" />
      <path
         style="fill:#f16b52;stroke-width:0.08466666;opacity:1;fill-opacity:1"
         d="m 84.448654,104.26985 c -0.149784,-0.59811 -0.258657,-1.10116 -0.241935,-1.11787 0.05237,-0.0524 0.586435,1.98887 0.549419,2.09992 -0.01933,0.058 -0.1577,-0.38394 -0.307484,-0.98205 z"
         id="path972" />
      <path
         style="fill:#f16b52;stroke-width:0.08466666;opacity:1;fill-opacity:1"
         d="m 82.715756,103.56937 c -0.143324,-0.45049 -0.348217,-1.62622 -0.293023,-1.68142 0.01928,-0.0193 0.136965,0.4282 0.261527,0.99437 0.237465,1.07932 0.25113,1.37741 0.0315,0.68705 z"
         id="path970" />
      <path
         style="fill:#f16b52;stroke-width:0.08466666;opacity:1;fill-opacity:1"
         d="m 82.916805,98.171142 c -0.08877,-0.106961 -0.334585,-1.996787 -0.544872,-4.188897 -0.08517,-0.887802 0.03297,-0.525567 0.167369,0.513211 0.06843,0.528879 0.220845,1.5848 0.338701,2.346491 0.117864,0.761692 0.198399,1.400787 0.178977,1.420213 -0.01943,0.01943 -0.08251,-0.02153 -0.140175,-0.09102 z"
         id="path884" />
    </g>
  </g>
</svg>
